<?xml version="1.0" encoding="UTF-8"?>
<svg id="Layer_1" data-name="Layer 1" xmlns="http://www.w3.org/2000/svg" viewBox="0 0 1920 1080">
  <defs>
    <style>
      .cls-1 {
        fill: #fff;
      }
    </style>
  </defs>
  <g>
    <path class="cls-1" d="M224.18,426.39h21.34c34.22,0,69.21-6.66,69.21-56.08s-34.99-55.64-69.21-55.64h-48.52v165.79h27.18v-54.06ZM245.74,401.88h-21.56v-62.7h21.56c27.11,0,41.81,4.96,41.81,31.13s-14.69,31.57-41.81,31.57Z"/>
    <path class="cls-1" d="M672.5,482.68c42.97,0,64.76-15.58,64.76-46.3,0-33.75-33.49-43.99-63.04-53.02-2.14-.66-4.28-1.31-6.4-1.97-26.9-8.35-36.46-13.56-36.46-26.21,0-7.82,3.41-18.22,32.91-18.22,11.83,0,39.36,3.29,39.36,33.8v4.47h27.18v-4.47c0-28.19-17.48-58.31-66.54-58.31s-60.09,23.48-60.09,43.18c0,32.79,28.76,41.48,56.6,49.9,2.69.79,5.4,1.55,8.11,2.31,25.63,7.2,41.19,12.77,41.19,29.44,0,10.33-4.47,20.89-37.58,20.89-30.56,0-48.26-6.69-48.26-40.92v-4.47h-27.18v4.47c0,44.64,23.97,65.43,75.44,65.43Z"/>
    <path class="cls-1" d="M781.77,426.39h21.34c34.22,0,69.21-6.66,69.21-56.08s-34.99-55.64-69.21-55.64h-48.52v165.79h27.18v-54.06ZM803.33,401.88h-21.56v-62.7h21.56c27.11,0,41.81,4.96,41.81,31.13s-14.69,31.57-41.81,31.57Z"/>
    <path class="cls-1" d="M1091.02,482.68c42.19,0,70.38-25.01,75.41-66.9l.6-5h-27.25l-.47,3.94c-3.32,28.02-20.47,43.45-48.29,43.45-31.75,0-50.71-22.7-50.71-60.72s18.96-60.5,50.71-60.5c28.24,0,44.94,14.95,48.29,43.22l.47,3.94h27.26l-.61-5c-4.96-41.13-33.86-66.67-75.41-66.67-46.59,0-77.89,34.16-77.89,85.01s31.3,85.23,77.89,85.23Z"/>
    <polygon class="cls-1" points="1238.51 480.45 1265.47 480.45 1265.47 339.18 1319.76 339.18 1319.76 314.66 1183.78 314.66 1183.78 339.18 1238.51 339.18 1238.51 480.45"/>
    <polygon class="cls-1" points="1434.35 455.94 1399.42 455.94 1399.42 339.18 1434.35 339.18 1434.35 314.66 1337.09 314.66 1337.09 339.18 1372.24 339.18 1372.24 455.94 1337.09 455.94 1337.09 480.45 1434.35 480.45 1434.35 455.94"/>
    <polygon class="cls-1" points="1547.5 480.45 1600.88 314.66 1573.47 314.66 1525.45 464.2 1477.65 314.66 1450 314.66 1503.62 480.45 1547.5 480.45"/>
    <polygon class="cls-1" points="1722.71 314.66 1616.54 314.66 1616.54 480.45 1722.71 480.45 1722.71 455.94 1643.72 455.94 1643.72 409.7 1700.88 409.7 1700.88 385.19 1643.72 385.19 1643.72 339.18 1722.71 339.18 1722.71 314.66"/>
    <polygon class="cls-1" points="995.8 455.94 916.83 455.94 916.83 409.7 973.98 409.7 973.98 385.19 916.83 385.19 916.83 339.18 995.8 339.18 995.8 314.66 889.64 314.66 889.64 480.45 995.8 480.45 995.8 455.94"/>
    <polygon class="cls-1" points="438.22 455.94 359.24 455.94 359.24 409.7 416.4 409.7 416.4 385.19 359.24 385.19 359.24 339.18 438.22 339.18 438.22 314.66 332.06 314.66 332.06 480.45 438.22 480.45 438.22 455.94"/>
    <path class="cls-1" d="M1719.2,394.96c0-.41-.08-.78-.24-1.12-.16-.34-.38-.63-.67-.87-.29-.24-.64-.43-1.04-.56-.4-.13-.84-.2-1.32-.2h-2.99v8.95h.42v-3.58h2.55c.11,0,.21,0,.31,0s.19-.01.29-.01l1.98,3.6h.53l-2.06-3.68c.7-.15,1.25-.44,1.64-.88.4-.44.59-.99.59-1.63ZM1715.89,397.18h-2.53v-4.55h2.55c.86,0,1.55.21,2.08.64.53.43.79.99.79,1.69s-.26,1.21-.79,1.61c-.53.4-1.23.6-2.1.6Z"/>
    <path class="cls-1" d="M1718.63,390.08c-.91-.36-1.92-.53-3.03-.53s-2.12.18-3.03.53c-.91.36-1.69.86-2.33,1.5-.65.65-1.15,1.42-1.5,2.34-.36.91-.53,1.92-.53,3.03s.18,2.12.53,3.03c.36.91.86,1.69,1.5,2.34.65.65,1.42,1.15,2.33,1.5.91.36,1.92.53,3.03.53s2.12-.18,3.03-.53c.91-.36,1.69-.86,2.33-1.5.65-.65,1.15-1.43,1.5-2.34.36-.91.53-1.92.53-3.03s-.18-2.12-.53-3.03c-.36-.91-.86-1.69-1.5-2.34-.65-.65-1.42-1.15-2.33-1.5ZM1722.56,396.94c0,1.04-.17,1.99-.49,2.85-.33.86-.8,1.59-1.42,2.21-.61.61-1.35,1.09-2.2,1.42-.85.33-1.8.49-2.86.49s-1.99-.17-2.85-.49c-.86-.33-1.59-.8-2.21-1.42-.61-.61-1.09-1.35-1.42-2.21-.33-.86-.49-1.81-.49-2.85s.17-2.01.49-2.86c.33-.85.8-1.58,1.42-2.2.61-.61,1.35-1.09,2.21-1.42.86-.33,1.81-.49,2.85-.49s2.01.17,2.86.49c.85.33,1.58.8,2.2,1.42.61.61,1.09,1.35,1.42,2.2.33.85.49,1.8.49,2.86Z"/>
    <path class="cls-1" d="M482.74,417.5l69.81-.02v62.97h27.18v-63.42c0-10.8-5.69-16.27-16.91-16.27h-6.14c11.21-5.13,21.06-15.88,21.06-37.8,0-42.55-33.18-48.29-65.64-48.29h-56.53v165.79h27.18v-62.95ZM550.54,365.68c-.29,5.67-3.24,19.19-24.17,24.78-11.21,3-25.88,3.28-43.64.83v-52.12h29.35c26.63,0,38.33,2.51,38.46,26.51Z"/>
  </g>
  <g>
    <polygon class="cls-1" points="1697.49 658.5 1512.81 658.5 1531.07 601.77 1503.67 601.77 1450.26 767.56 1477.69 767.56 1504.06 685.68 1722 685.68 1722 579.52 1697.49 579.52 1697.49 658.5"/>
    <path class="cls-1" d="M1410.47,658.5h-46.24v-57.15h-24.51v57.15h-46.03v-78.98h-24.51v78.98h-60.65v-57.15h-24.51v57.15h-78.98v-33.26l-2.83-2.17-24.12-23.54-216.86-.09,56.02-39.95v-31.18l-78.16,55.28,13.4,41.82,228.03.22v32.88h-297.73v-57.15h-24.51v57.15h-178.74v-127.51h-55.32c-33.49,0-69.21,3.63-69.21,47.02s35.73,47.42,69.21,47.42h28.14v33.07H198v8.94h0v9.31h0v8.94h1236.98v-106.16h-24.51v78.98ZM482.18,580.65c0-20.16,10.55-26.96,41.81-26.96h28.36v51.69h-28.36c-28.42,0-41.81-2.44-41.81-24.73Z"/>
    <path class="cls-1" d="M1700.08,695.85c-8.24,0-14.95,6.71-14.95,14.95s6.71,15.11,14.95,15.11,15.11-6.92,15.11-15.11-6.92-14.95-15.11-14.95Z"/>
    <path class="cls-1" d="M1210.48,725.91c8.19,0,15.11-6.92,15.11-15.11s-6.92-14.95-15.11-14.95-14.95,6.71-14.95,14.95,6.71,15.11,14.95,15.11Z"/>
    <path class="cls-1" d="M720.68,563.43c0,8.33,6.71,15.11,14.95,15.11s15.11-6.92,15.11-15.11-6.92-14.95-15.11-14.95-14.95,6.71-14.95,14.95Z"/>
    <path class="cls-1" d="M681.51,563.43c0,8.33,6.71,15.11,14.95,15.11s15.11-6.92,15.11-15.11-6.92-14.95-15.11-14.95-14.95,6.71-14.95,14.95Z"/>
    <path class="cls-1" d="M407.57,563.43c0,8.33,6.71,15.11,14.95,15.11s15.11-6.92,15.11-15.11-6.92-14.95-15.11-14.95-14.95,6.71-14.95,14.95Z"/>
  </g>
</svg>