<?xml version="1.0" encoding="UTF-8"?>
<svg id="Layer_1" data-name="Layer 1" xmlns="http://www.w3.org/2000/svg" viewBox="0 0 1920 1080">
  <defs>
    <style>
      .cls-1 {
        fill: #e5e5e5;
      }

      .cls-2 {
        fill: blue;
      }

      .cls-3 {
        fill: #fff;
      }
    </style>
  </defs>
  <g>
    <g>
      <path class="cls-2" d="M632.27,470.33h16.13c25.88,0,52.33-5.04,52.33-42.4s-26.45-42.07-52.33-42.07h-36.69v125.35h20.55v-40.88ZM648.57,451.8h-16.3v-47.41h16.3c20.5,0,31.61,3.75,31.61,23.54s-11.11,23.87-31.61,23.87Z"/>
      <path class="cls-2" d="M971.23,512.89c32.49,0,48.96-11.78,48.96-35,0-25.52-25.32-33.26-47.67-40.09-1.62-.5-3.24-.99-4.84-1.49-20.34-6.31-27.56-10.26-27.56-19.82,0-5.92,2.58-13.78,24.88-13.78,8.95,0,29.76,2.49,29.76,25.55v3.38h20.55v-3.38c0-21.31-13.22-44.09-50.31-44.09s-45.43,17.75-45.43,32.65c0,24.79,21.75,31.36,42.8,37.73,2.03.6,4.08,1.17,6.13,1.75,19.38,5.44,31.14,9.66,31.14,22.26,0,7.81-3.38,15.8-28.41,15.8-23.11,0-36.49-5.06-36.49-30.94v-3.38h-20.55v3.38c0,33.75,18.12,49.47,57.04,49.47Z"/>
      <path class="cls-2" d="M1053.85,470.33h16.14c25.87,0,52.33-5.04,52.33-42.4s-26.45-42.07-52.33-42.07h-36.69v125.35h20.55v-40.88ZM1070.15,451.8h-16.3v-47.41h16.3c20.5,0,31.61,3.75,31.61,23.54s-11.11,23.87-31.61,23.87Z"/>
      <path class="cls-2" d="M1287.67,512.89c31.9,0,53.21-18.91,57.02-50.58l.45-3.78h-20.61l-.35,2.98c-2.51,21.18-15.48,32.85-36.51,32.85-24.01,0-38.34-17.16-38.34-45.91s14.33-45.74,38.34-45.74c21.35,0,33.98,11.3,36.51,32.68l.35,2.98h20.61l-.46-3.78c-3.75-31.09-25.6-50.41-57.02-50.41-35.22,0-58.89,25.83-58.89,64.27s23.67,64.44,58.89,64.44Z"/>
      <polygon class="cls-2" points="1399.19 511.21 1419.57 511.21 1419.57 404.39 1460.62 404.39 1460.62 385.86 1357.81 385.86 1357.81 404.39 1399.19 404.39 1399.19 511.21"/>
      <polygon class="cls-2" points="1547.26 492.67 1520.85 492.67 1520.85 404.39 1547.26 404.39 1547.26 385.86 1473.72 385.86 1473.72 404.39 1500.29 404.39 1500.29 492.67 1473.72 492.67 1473.72 511.21 1547.26 511.21 1547.26 492.67"/>
      <polygon class="cls-2" points="1632.81 511.21 1673.17 385.86 1652.44 385.86 1616.13 498.92 1580 385.86 1559.09 385.86 1599.63 511.21 1632.81 511.21"/>
      <polygon class="cls-2" points="1765.28 385.86 1685.01 385.86 1685.01 511.21 1765.28 511.21 1765.28 492.67 1705.56 492.67 1705.56 457.71 1748.77 457.71 1748.77 439.18 1705.56 439.18 1705.56 404.39 1765.28 404.39 1765.28 385.86"/>
      <polygon class="cls-2" points="1215.68 492.67 1155.97 492.67 1155.97 457.71 1199.18 457.71 1199.18 439.18 1155.97 439.18 1155.97 404.39 1215.68 404.39 1215.68 385.86 1135.41 385.86 1135.41 511.21 1215.68 511.21 1215.68 492.67"/>
      <polygon class="cls-2" points="794.1 492.67 734.39 492.67 734.39 457.71 777.6 457.71 777.6 439.18 734.39 439.18 734.39 404.39 794.1 404.39 794.1 385.86 713.83 385.86 713.83 511.21 794.1 511.21 794.1 492.67"/>
      <path class="cls-2" d="M1762.63,446.57c0-.31-.06-.59-.18-.85-.12-.25-.29-.47-.51-.66-.22-.18-.48-.33-.79-.43-.3-.1-.64-.15-1-.15h-2.26v6.76h.31v-2.71h1.93c.08,0,.16,0,.23,0s.15,0,.22,0l1.5,2.72h.4l-1.56-2.78c.53-.11.94-.33,1.24-.67.3-.33.45-.75.45-1.23ZM1760.13,448.25h-1.92v-3.44h1.93c.65,0,1.17.16,1.57.49.4.32.6.75.6,1.28s-.2.92-.6,1.22c-.4.3-.93.46-1.59.46Z"/>
      <path class="cls-2" d="M1762.19,442.88c-.69-.27-1.45-.4-2.29-.4s-1.6.13-2.29.4c-.69.27-1.28.65-1.77,1.14-.49.49-.87,1.08-1.14,1.77-.27.69-.4,1.45-.4,2.29s.13,1.6.4,2.29c.27.69.65,1.28,1.14,1.77.49.49,1.08.87,1.77,1.14.69.27,1.45.4,2.29.4s1.6-.13,2.29-.4c.69-.27,1.28-.65,1.77-1.14.49-.49.87-1.08,1.14-1.77.27-.69.4-1.45.4-2.29s-.13-1.6-.4-2.29c-.27-.69-.65-1.28-1.14-1.77-.49-.49-1.08-.87-1.77-1.14ZM1765.17,448.07c0,.79-.12,1.51-.37,2.15-.25.65-.61,1.2-1.07,1.67-.46.46-1.02.82-1.66,1.07-.64.25-1.36.37-2.16.37s-1.51-.12-2.15-.37c-.65-.25-1.2-.61-1.67-1.07-.46-.46-.82-1.02-1.07-1.67-.25-.65-.37-1.37-.37-2.15s.12-1.52.37-2.16c.25-.64.61-1.2,1.07-1.66.46-.46,1.02-.82,1.67-1.07.65-.25,1.37-.37,2.15-.37s1.52.12,2.16.37c.64.25,1.2.61,1.66,1.07.46.46.82,1.02,1.07,1.66.25.64.37,1.36.37,2.16Z"/>
      <path class="cls-2" d="M827.76,463.61h52.78s0,47.6,0,47.6h20.55v-47.95c0-8.16-4.3-12.3-12.79-12.3h-4.65c8.47-3.88,15.92-12,15.92-28.58,0-32.17-25.09-36.51-49.63-36.51h-42.74v125.35h20.55v-47.6ZM879.02,424.43c-.22,4.29-2.45,14.51-18.27,18.74-8.48,2.27-19.57,2.48-32.99.63v-39.41h22.19c20.14,0,28.98,1.9,29.08,20.04Z"/>
    </g>
    <g>
      <polygon class="cls-2" points="1746.21 645.83 1606.58 645.83 1620.39 602.94 1599.66 602.94 1559.29 728.29 1580.03 728.29 1599.96 666.38 1764.74 666.38 1764.74 586.11 1746.21 586.11 1746.21 645.83"/>
      <path class="cls-2" d="M1529.2,645.83h-34.96v-43.21h-18.53v43.21h-34.8v-59.72h-18.53v59.72h-45.86v-43.21h-18.53v43.21h-59.71v-25.15l-2.14-1.64-18.24-17.8-163.96-.07,42.36-30.21v-23.58l-59.1,41.79,10.13,31.62,172.41.16v24.86h-225.11v-43.21h-18.53v43.21h-135.14v-96.41h-41.83c-25.32,0-52.33,2.75-52.33,35.55s27.01,35.85,52.33,35.85h21.28v25h-267.92v6.76h0v7.04h0v6.76h935.26v-80.27h-18.53v59.72ZM827.34,586.96c0-15.24,7.98-20.39,31.61-20.39h21.44v39.08h-21.44c-21.49,0-31.61-1.84-31.61-18.7Z"/>
      <path class="cls-2" d="M1748.17,674.07c-6.23,0-11.3,5.07-11.3,11.3s5.07,11.42,11.3,11.42,11.42-5.23,11.42-11.42-5.23-11.3-11.42-11.3Z"/>
      <path class="cls-2" d="M1377.99,696.8c6.19,0,11.42-5.23,11.42-11.42s-5.23-11.3-11.42-11.3-11.3,5.07-11.3,11.3,5.07,11.42,11.3,11.42Z"/>
      <path class="cls-2" d="M1007.66,573.94c0,6.3,5.07,11.42,11.3,11.42s11.42-5.23,11.42-11.42-5.23-11.3-11.42-11.3-11.3,5.07-11.3,11.3Z"/>
      <path class="cls-2" d="M978.05,573.94c0,6.3,5.07,11.42,11.3,11.42s11.42-5.23,11.42-11.42-5.23-11.3-11.42-11.3-11.3,5.07-11.3,11.3Z"/>
      <path class="cls-2" d="M770.92,573.94c0,6.3,5.07,11.42,11.3,11.42s11.42-5.23,11.42-11.42-5.23-11.3-11.42-11.3-11.3,5.07-11.3,11.3Z"/>
    </g>
  </g>
  <g>
    <rect class="cls-2" x="154.5" y="351.71" width="343.26" height="343.26"/>
    <g>
      <polygon class="cls-3" points="236 660.05 281.01 626.01 281.01 421.66 236.01 455.72 236 660.05"/>
      <g>
        <polygon class="cls-3" points="326.05 524.02 371.07 558.06 416.26 523.58 416.26 455.57 326.05 524.02"/>
        <polygon class="cls-1" points="281.01 421.66 371.15 489.79 416.26 455.57 326.15 387.74 281.01 421.66"/>
      </g>
    </g>
  </g>
</svg>