<?xml version="1.0" encoding="UTF-8"?>
<svg id="Layer_1" data-name="Layer 1" xmlns="http://www.w3.org/2000/svg" viewBox="0 0 1920 1080">
  <defs>
    <style>
      .cls-1 {
        fill: #e5e5e5;
      }

      .cls-2 {
        fill: #fff;
      }

      .cls-3 {
        fill: #17181b;
      }
    </style>
  </defs>
  <rect class="cls-3" x="773.29" y="95" width="373.43" height="373.43"/>
  <g>
    <g>
      <path class="cls-3" d="M339.37,697.23h18c28.87,0,58.38-5.62,58.38-47.3s-29.51-46.93-58.38-46.93h-40.93v139.83h22.93v-45.6ZM357.56,676.56h-18.18v-52.89h18.18c22.87,0,35.26,4.18,35.26,26.25s-12.39,26.63-35.26,26.63Z"/>
      <path class="cls-3" d="M717.5,744.71c36.24,0,54.62-13.14,54.62-39.05,0-28.47-28.25-37.11-53.17-44.72-1.81-.55-3.61-1.1-5.4-1.66-22.69-7.04-30.75-11.44-30.75-22.11,0-6.6,2.88-15.37,27.76-15.37,9.98,0,33.2,2.78,33.2,28.51v3.77h22.93v-3.77c0-23.78-14.74-49.18-56.12-49.18s-50.68,19.81-50.68,36.42c0,27.66,24.26,34.99,47.74,42.09,2.27.67,4.55,1.31,6.84,1.95,21.62,6.07,34.74,10.77,34.74,24.83,0,8.71-3.77,17.62-31.7,17.62-25.78,0-40.71-5.65-40.71-34.51v-3.77h-22.93v3.77c0,37.65,20.22,55.19,63.63,55.19Z"/>
      <path class="cls-3" d="M809.67,697.23h18c28.86,0,58.37-5.62,58.37-47.3s-29.51-46.93-58.37-46.93h-40.93v139.83h22.93v-45.6ZM827.85,676.56h-18.19v-52.89h18.19c22.87,0,35.26,4.18,35.26,26.25s-12.39,26.63-35.26,26.63Z"/>
      <path class="cls-3" d="M1070.51,744.71c35.59,0,59.36-21.09,63.6-56.43l.51-4.22h-22.99l-.39,3.33c-2.8,23.63-17.26,36.64-40.73,36.64-26.78,0-42.77-19.15-42.77-51.21s15.99-51.03,42.77-51.03c23.82,0,37.9,12.61,40.73,36.46l.39,3.33h22.99l-.51-4.22c-4.19-34.69-28.56-56.24-63.6-56.24-39.29,0-65.7,28.81-65.7,71.7s26.4,71.89,65.7,71.89Z"/>
      <polygon class="cls-3" points="1194.91 742.83 1217.65 742.83 1217.65 623.68 1263.44 623.68 1263.44 603 1148.75 603 1148.75 623.68 1194.91 623.68 1194.91 742.83"/>
      <polygon class="cls-3" points="1360.09 722.16 1330.63 722.16 1330.63 623.68 1360.09 623.68 1360.09 603 1278.06 603 1278.06 623.68 1307.7 623.68 1307.7 722.16 1278.06 722.16 1278.06 742.83 1360.09 742.83 1360.09 722.16"/>
      <polygon class="cls-3" points="1455.53 742.83 1500.56 603 1477.44 603 1436.93 729.13 1396.62 603 1373.29 603 1418.52 742.83 1455.53 742.83"/>
      <polygon class="cls-3" points="1603.31 603 1513.77 603 1513.77 742.83 1603.31 742.83 1603.31 722.16 1536.69 722.16 1536.69 683.16 1584.9 683.16 1584.9 662.49 1536.69 662.49 1536.69 623.68 1603.31 623.68 1603.31 603"/>
      <polygon class="cls-3" points="990.2 722.16 923.58 722.16 923.58 683.16 971.79 683.16 971.79 662.49 923.58 662.49 923.58 623.68 990.2 623.68 990.2 603 900.66 603 900.66 742.83 990.2 742.83 990.2 722.16"/>
      <polygon class="cls-3" points="519.9 722.16 453.29 722.16 453.29 683.16 501.49 683.16 501.49 662.49 453.29 662.49 453.29 623.68 519.9 623.68 519.9 603 430.36 603 430.36 742.83 519.9 742.83 519.9 722.16"/>
      <path class="cls-3" d="M1600.35,670.73c0-.34-.07-.66-.2-.94-.13-.28-.32-.53-.57-.73-.24-.21-.54-.36-.88-.48-.34-.11-.71-.17-1.11-.17h-2.52v7.55h.35v-3.02h2.15c.09,0,.18,0,.26,0s.16,0,.24,0l1.67,3.04h.45l-1.74-3.1c.59-.12,1.05-.37,1.39-.74.33-.37.5-.83.5-1.38ZM1597.57,672.6h-2.14v-3.84h2.15c.72,0,1.31.18,1.75.54.44.36.67.84.67,1.43s-.22,1.02-.67,1.36c-.45.34-1.04.51-1.77.51Z"/>
      <path class="cls-3" d="M1599.87,666.61c-.77-.3-1.62-.45-2.55-.45s-1.79.15-2.55.45c-.77.3-1.42.72-1.97,1.27-.55.55-.97,1.2-1.27,1.97-.3.77-.45,1.62-.45,2.55s.15,1.79.45,2.55c.3.77.72,1.42,1.27,1.97.54.55,1.2.97,1.97,1.27.77.3,1.62.45,2.55.45s1.79-.15,2.55-.45c.77-.3,1.42-.72,1.97-1.27.55-.55.97-1.2,1.27-1.97.3-.77.45-1.62.45-2.55s-.15-1.79-.45-2.55c-.3-.77-.72-1.42-1.27-1.97-.55-.55-1.2-.97-1.97-1.27ZM1603.19,672.4c0,.88-.14,1.68-.42,2.4s-.68,1.34-1.19,1.86c-.52.52-1.14.92-1.85,1.19-.72.28-1.52.42-2.41.42s-1.68-.14-2.4-.42c-.72-.28-1.34-.68-1.86-1.19-.52-.52-.92-1.14-1.19-1.86-.28-.72-.42-1.52-.42-2.4s.14-1.69.42-2.41c.28-.72.68-1.34,1.19-1.85.52-.52,1.14-.92,1.86-1.19.72-.28,1.52-.42,2.4-.42s1.69.14,2.41.42c.72.28,1.34.68,1.85,1.19.52.52.92,1.14,1.19,1.85.28.72.42,1.52.42,2.41Z"/>
      <path class="cls-3" d="M557.45,689.74h58.88s0,53.1,0,53.1h22.93v-53.49c0-9.11-4.8-13.72-14.27-13.72h-5.18c9.45-4.33,17.76-13.39,17.76-31.89,0-35.89-27.99-40.73-55.37-40.73h-47.68v139.83h22.93v-53.1ZM614.64,646.03c-.24,4.78-2.73,16.19-20.39,20.9-9.46,2.53-21.83,2.77-36.81.7v-43.96h24.75c22.46,0,32.33,2.11,32.44,22.36Z"/>
    </g>
    <g>
      <polygon class="cls-3" points="1582.04 893.01 1426.27 893.01 1441.68 845.16 1418.56 845.16 1373.52 985 1396.65 985 1418.89 915.94 1602.71 915.94 1602.71 826.4 1582.04 826.4 1582.04 893.01"/>
      <path class="cls-3" d="M1339.95,893.01h-39v-48.21h-20.68v48.21h-38.82v-66.62h-20.68v66.62h-51.16v-48.21h-20.68v48.21h-66.62v-28.06l-2.38-1.83-20.34-19.85-182.91-.08,47.25-33.7v-26.3l-65.93,46.62,11.3,35.27,192.33.18v27.74h-251.13v-48.21h-20.68v48.21h-150.76v-107.55h-46.66c-28.24,0-58.38,3.07-58.38,39.66s30.13,39.99,58.38,39.99h23.74v27.89h-298.88v7.54h0v7.85h0v7.54h1043.34v-89.54h-20.67v66.62ZM556.98,827.34c0-17,8.9-22.74,35.26-22.74h23.92v43.6h-23.92c-23.97,0-35.26-2.06-35.26-20.86Z"/>
      <path class="cls-3" d="M1584.23,924.52c-6.95,0-12.61,5.66-12.61,12.61s5.66,12.74,12.61,12.74,12.74-5.84,12.74-12.74-5.84-12.61-12.74-12.61Z"/>
      <path class="cls-3" d="M1171.27,949.87c6.91,0,12.74-5.84,12.74-12.74s-5.84-12.61-12.74-12.61-12.61,5.66-12.61,12.61,5.66,12.74,12.61,12.74Z"/>
      <path class="cls-3" d="M758.14,812.82c0,7.03,5.66,12.74,12.61,12.74s12.74-5.83,12.74-12.74-5.84-12.61-12.74-12.61-12.61,5.66-12.61,12.61Z"/>
      <path class="cls-3" d="M725.1,812.82c0,7.03,5.66,12.74,12.61,12.74s12.74-5.83,12.74-12.74-5.84-12.61-12.74-12.61-12.61,5.66-12.61,12.61Z"/>
      <path class="cls-3" d="M494.05,812.82c0,7.03,5.66,12.74,12.61,12.74s12.74-5.83,12.74-12.74-5.84-12.61-12.74-12.61-12.61,5.66-12.61,12.61Z"/>
    </g>
  </g>
  <g>
    <polygon class="cls-2" points="861.95 430.44 910.92 393.4 910.92 171.1 861.96 208.14 861.95 430.44"/>
    <g>
      <polygon class="cls-2" points="959.91 282.44 1008.89 319.48 1058.05 281.97 1058.05 207.98 959.91 282.44"/>
      <polygon class="cls-1" points="910.92 171.1 1008.97 245.21 1058.05 207.98 960.02 134.19 910.92 171.1"/>
    </g>
  </g>
</svg>